<svg xmlns="http://www.w3.org/2000/svg" viewBox="-20 60 510 240" width="700" height="343">
  <defs>
    <clipPath id="logo-clip1">
      <path d="M 55 168 L 127.332031 168 L 127.332031 239.300781 L 55 239.300781 Z"/>
    </clipPath>
    <clipPath id="logo-clip2">
      <path d="M 21.582031 133.550781 L 94 133.550781 L 94 206 L 21.582031 206 Z"/>
    </clipPath>
  </defs>
  
  <!-- Entire Logo Group: moved up together, shifted left, and scaled larger -->
  <g transform="translate(-20, -50) scale(1.35)">
    <!-- Logo Icon -->
    <g transform="translate(0, 0)">
      <!-- Dark green section -->
      <g clip-path="url(#logo-clip1)">
        <path fill="#245501" d="M 127.613281 169.460938 L 127.613281 205.4375 L 93.46875 205.4375 L 93.46875 239.582031 L 55.726562 239.582031 L 55.726562 220.925781 C 58.15625 208.03125 64.453125 196.5 73.367188 187.585938 C 84.953125 176 100.953125 168.835938 118.628906 168.835938 C 121.636719 168.835938 124.632812 169.042969 127.613281 169.460938 Z" fill-opacity="1" fill-rule="evenodd"/>
      </g>
      <!-- Light green section -->
      <g clip-path="url(#logo-clip2)">
        <path fill="#73a942" d="M 55.726562 133.550781 L 93.46875 133.550781 L 93.46875 165.710938 C 91.171875 166.574219 88.929688 167.550781 86.734375 168.644531 C 84.542969 169.738281 82.410156 170.9375 80.339844 172.25 C 78.265625 173.558594 76.269531 174.972656 74.339844 176.488281 C 72.414062 178.003906 70.570312 179.613281 68.808594 181.316406 C 67.046875 183.019531 65.375 184.808594 63.796875 186.683594 C 62.21875 188.558594 60.738281 190.507812 59.359375 192.535156 C 57.976562 194.558594 56.707031 196.652344 55.539062 198.808594 C 54.375 200.960938 53.320312 203.171875 52.382812 205.4375 L 21.582031 205.4375 L 21.582031 167.695312 L 55.726562 167.695312 Z" fill-opacity="1" fill-rule="evenodd"/>
      </g>
    </g>
    
    <!-- Text: Clino Health -->
    <g transform="translate(160, 113)">
      <!-- Clino (light green #73a942) -->
      <g fill="#73a942">
        <g transform="translate(0.336333, 68.702569)">
          <path d="M 25.5 -38.796875 C 23.625 -38.796875 21.960938 -38.429688 20.515625 -37.703125 C 19.066406 -36.984375 17.847656 -35.9375 16.859375 -34.5625 C 15.878906 -33.1875 15.132812 -31.523438 14.625 -29.578125 C 14.125 -27.640625 13.875 -25.457031 13.875 -23.03125 C 13.875 -19.757812 14.28125 -16.96875 15.09375 -14.65625 C 15.90625 -12.34375 17.164062 -10.578125 18.875 -9.359375 C 20.59375 -8.148438 22.800781 -7.546875 25.5 -7.546875 C 27.375 -7.546875 29.253906 -7.753906 31.140625 -8.171875 C 33.035156 -8.597656 35.09375 -9.203125 37.3125 -9.984375 L 37.3125 -1.75 C 35.269531 -0.894531 33.253906 -0.285156 31.265625 0.078125 C 29.273438 0.453125 27.046875 0.640625 24.578125 0.640625 C 19.804688 0.640625 15.882812 -0.347656 12.8125 -2.328125 C 9.738281 -4.304688 7.460938 -7.070312 5.984375 -10.625 C 4.503906 -14.1875 3.765625 -18.34375 3.765625 -23.09375 C 3.765625 -26.59375 4.238281 -29.800781 5.1875 -32.71875 C 6.144531 -35.632812 7.539062 -38.160156 9.375 -40.296875 C 11.207031 -42.429688 13.472656 -44.078125 16.171875 -45.234375 C 18.878906 -46.398438 21.988281 -46.984375 25.5 -46.984375 C 27.800781 -46.984375 30.109375 -46.691406 32.421875 -46.109375 C 34.734375 -45.523438 36.945312 -44.726562 39.0625 -43.71875 L 35.890625 -35.734375 C 34.160156 -36.554688 32.414062 -37.269531 30.65625 -37.875 C 28.90625 -38.488281 27.1875 -38.796875 25.5 -38.796875 Z"/>
        </g>
        <g transform="translate(41.67148, 68.702569)">
          <path d="M 14.734375 0 L 5.0625 0 L 5.0625 -49.296875 L 14.734375 -49.296875 Z"/>
        </g>
        <g transform="translate(61.468011, 68.702569)">
          <path d="M 14.734375 -35.421875 L 14.734375 0 L 5.0625 0 L 5.0625 -35.421875 Z M 9.921875 -49.296875 C 11.347656 -49.296875 12.578125 -48.960938 13.609375 -48.296875 C 14.648438 -47.628906 15.171875 -46.382812 15.171875 -44.5625 C 15.171875 -42.769531 14.648438 -41.53125 13.609375 -40.84375 C 12.578125 -40.15625 11.347656 -39.8125 9.921875 -39.8125 C 8.460938 -39.8125 7.21875 -40.15625 6.1875 -40.84375 C 5.164062 -41.53125 4.65625 -42.769531 4.65625 -44.5625 C 4.65625 -46.382812 5.164062 -47.628906 6.1875 -48.296875 C 7.21875 -48.960938 8.460938 -49.296875 9.921875 -49.296875 Z"/>
        </g>
        <g transform="translate(81.264542, 68.702569)">
          <path d="M 25.1875 -36.078125 C 28.96875 -36.078125 32.007812 -35.046875 34.3125 -32.984375 C 36.613281 -30.929688 37.765625 -27.632812 37.765625 -23.09375 L 37.765625 0 L 28.09375 0 L 28.09375 -20.6875 C 28.09375 -23.21875 27.632812 -25.125 26.71875 -26.40625 C 25.800781 -27.695312 24.359375 -28.34375 22.390625 -28.34375 C 19.441406 -28.34375 17.425781 -27.335938 16.34375 -25.328125 C 15.269531 -23.328125 14.734375 -20.4375 14.734375 -16.65625 L 14.734375 0 L 5.0625 0 L 5.0625 -35.421875 L 12.453125 -35.421875 L 13.75 -30.890625 L 14.28125 -30.890625 C 15.039062 -32.109375 15.984375 -33.097656 17.109375 -33.859375 C 18.242188 -34.617188 19.503906 -35.175781 20.890625 -35.53125 C 22.273438 -35.894531 23.707031 -36.078125 25.1875 -36.078125 Z"/>
        </g>
        <g transform="translate(123.898332, 68.702569)">
          <path d="M 37.25 -17.765625 C 37.25 -14.816406 36.851562 -12.203125 36.0625 -9.921875 C 35.269531 -7.640625 34.117188 -5.710938 32.609375 -4.140625 C 31.097656 -2.566406 29.28125 -1.375 27.15625 -0.5625 C 25.039062 0.238281 22.648438 0.640625 19.984375 0.640625 C 17.492188 0.640625 15.207031 0.238281 13.125 -0.5625 C 11.050781 -1.375 9.25 -2.566406 7.71875 -4.140625 C 6.1875 -5.710938 5.003906 -7.640625 4.171875 -9.921875 C 3.335938 -12.203125 2.921875 -14.816406 2.921875 -17.765625 C 2.921875 -21.691406 3.613281 -25.015625 5 -27.734375 C 6.394531 -30.460938 8.378906 -32.535156 10.953125 -33.953125 C 13.535156 -35.367188 16.609375 -36.078125 20.171875 -36.078125 C 23.492188 -36.078125 26.4375 -35.367188 29 -33.953125 C 31.5625 -32.535156 33.578125 -30.460938 35.046875 -27.734375 C 36.515625 -25.015625 37.25 -21.691406 37.25 -17.765625 Z M 12.765625 -17.765625 C 12.765625 -15.441406 13.015625 -13.488281 13.515625 -11.90625 C 14.023438 -10.320312 14.816406 -9.128906 15.890625 -8.328125 C 16.972656 -7.523438 18.378906 -7.125 20.109375 -7.125 C 21.828125 -7.125 23.21875 -7.523438 24.28125 -8.328125 C 25.34375 -9.128906 26.125 -10.320312 26.625 -11.90625 C 27.125 -13.488281 27.375 -15.441406 27.375 -17.765625 C 27.375 -20.109375 27.125 -22.054688 26.625 -23.609375 C 26.125 -25.160156 25.335938 -26.328125 24.265625 -27.109375 C 23.191406 -27.890625 21.785156 -28.28125 20.046875 -28.28125 C 17.492188 -28.28125 15.640625 -27.40625 14.484375 -25.65625 C 13.335938 -23.90625 12.765625 -21.273438 12.765625 -17.765625 Z"/>
        </g>
      </g>
      <!-- Health (dark green #245501) -->
      <g fill="#245501">
        <g transform="translate(0.336333, 127.391169)">
          <path d="M 43.78125 0 L 33.984375 0 L 33.984375 -19.984375 L 15.65625 -19.984375 L 15.65625 0 L 5.828125 0 L 5.828125 -46.3125 L 15.65625 -46.3125 L 15.65625 -28.15625 L 33.984375 -28.15625 L 33.984375 -46.3125 L 43.78125 -46.3125 Z"/>
        </g>
        <g transform="translate(49.970183, 127.391169)">
          <path d="M 19.671875 -36.078125 C 22.941406 -36.078125 25.757812 -35.445312 28.125 -34.1875 C 30.488281 -32.9375 32.316406 -31.117188 33.609375 -28.734375 C 34.898438 -26.347656 35.546875 -23.429688 35.546875 -19.984375 L 35.546875 -15.296875 L 12.703125 -15.296875 C 12.804688 -12.578125 13.625 -10.441406 15.15625 -8.890625 C 16.6875 -7.335938 18.816406 -6.5625 21.546875 -6.5625 C 23.804688 -6.5625 25.875 -6.789062 27.75 -7.25 C 29.625 -7.71875 31.554688 -8.414062 33.546875 -9.34375 L 33.546875 -1.875 C 31.796875 -1 29.960938 -0.363281 28.046875 0.03125 C 26.140625 0.4375 23.820312 0.640625 21.09375 0.640625 C 17.550781 0.640625 14.410156 -0.015625 11.671875 -1.328125 C 8.941406 -2.640625 6.800781 -4.632812 5.25 -7.3125 C 3.695312 -10 2.921875 -13.378906 2.921875 -17.453125 C 2.921875 -21.585938 3.617188 -25.035156 5.015625 -27.796875 C 6.421875 -30.554688 8.378906 -32.625 10.890625 -34 C 13.410156 -35.382812 16.335938 -36.078125 19.671875 -36.078125 Z M 19.734375 -29.203125 C 17.859375 -29.203125 16.300781 -28.597656 15.0625 -27.390625 C 13.820312 -26.191406 13.109375 -24.304688 12.921875 -21.734375 L 26.484375 -21.734375 C 26.460938 -23.171875 26.203125 -24.445312 25.703125 -25.5625 C 25.210938 -26.6875 24.472656 -27.570312 23.484375 -28.21875 C 22.503906 -28.875 21.253906 -29.203125 19.734375 -29.203125 Z"/>
        </g>
        <g transform="translate(88.296249, 127.391169)">
          <path d="M 19.578125 -36.140625 C 24.328125 -36.140625 27.96875 -35.101562 30.5 -33.03125 C 33.039062 -30.96875 34.3125 -27.820312 34.3125 -23.59375 L 34.3125 0 L 27.5625 0 L 25.6875 -4.8125 L 25.4375 -4.8125 C 24.425781 -3.550781 23.390625 -2.515625 22.328125 -1.703125 C 21.273438 -0.898438 20.0625 -0.3125 18.6875 0.0625 C 17.3125 0.445312 15.644531 0.640625 13.6875 0.640625 C 11.59375 0.640625 9.71875 0.238281 8.0625 -0.5625 C 6.40625 -1.375 5.097656 -2.609375 4.140625 -4.265625 C 3.191406 -5.921875 2.71875 -8.023438 2.71875 -10.578125 C 2.71875 -14.335938 4.035156 -17.109375 6.671875 -18.890625 C 9.316406 -20.679688 13.28125 -21.671875 18.5625 -21.859375 L 24.703125 -22.046875 L 24.703125 -23.59375 C 24.703125 -25.457031 24.21875 -26.820312 23.25 -27.6875 C 22.28125 -28.550781 20.929688 -28.984375 19.203125 -28.984375 C 17.484375 -28.984375 15.800781 -28.738281 14.15625 -28.25 C 12.507812 -27.769531 10.863281 -27.160156 9.21875 -26.421875 L 6.015625 -32.9375 C 7.898438 -33.9375 10.007812 -34.71875 12.34375 -35.28125 C 14.675781 -35.851562 17.085938 -36.140625 19.578125 -36.140625 Z M 24.703125 -16.40625 L 20.96875 -16.28125 C 17.84375 -16.195312 15.671875 -15.632812 14.453125 -14.59375 C 13.242188 -13.5625 12.640625 -12.203125 12.640625 -10.515625 C 12.640625 -9.035156 13.070312 -7.984375 13.9375 -7.359375 C 14.800781 -6.742188 15.929688 -6.4375 17.328125 -6.4375 C 19.398438 -6.4375 21.144531 -7.046875 22.5625 -8.265625 C 23.988281 -9.492188 24.703125 -11.238281 24.703125 -13.5 Z"/>
        </g>
        <g transform="translate(127.477535, 127.391169)">
          <path d="M 14.734375 0 L 5.0625 0 L 5.0625 -49.296875 L 14.734375 -49.296875 Z"/>
        </g>
        <g transform="translate(147.274066, 127.391169)">
          <path d="M 19.984375 -7.0625 C 21.046875 -7.0625 22.078125 -7.164062 23.078125 -7.375 C 24.078125 -7.59375 25.078125 -7.859375 26.078125 -8.171875 L 26.078125 -0.984375 C 25.035156 -0.515625 23.75 -0.128906 22.21875 0.171875 C 20.6875 0.484375 19.015625 0.640625 17.203125 0.640625 C 15.085938 0.640625 13.191406 0.296875 11.515625 -0.390625 C 9.835938 -1.078125 8.515625 -2.269531 7.546875 -3.96875 C 6.585938 -5.675781 6.109375 -8.050781 6.109375 -11.09375 L 6.109375 -28.15625 L 1.484375 -28.15625 L 1.484375 -32.25 L 6.8125 -35.484375 L 9.59375 -42.953125 L 15.78125 -42.953125 L 15.78125 -35.421875 L 25.6875 -35.421875 L 25.6875 -28.15625 L 15.78125 -28.15625 L 15.78125 -11.09375 C 15.78125 -9.738281 16.164062 -8.726562 16.9375 -8.0625 C 17.707031 -7.394531 18.722656 -7.0625 19.984375 -7.0625 Z"/>
        </g>
        <g transform="translate(175.432647, 127.391169)">
          <path d="M 14.734375 -49.296875 L 14.734375 -39.25 C 14.734375 -37.5 14.671875 -35.832031 14.546875 -34.25 C 14.429688 -32.664062 14.34375 -31.546875 14.28125 -30.890625 L 14.796875 -30.890625 C 15.554688 -32.109375 16.457031 -33.097656 17.5 -33.859375 C 18.539062 -34.617188 19.695312 -35.175781 20.96875 -35.53125 C 22.238281 -35.894531 23.601562 -36.078125 25.0625 -36.078125 C 27.613281 -36.078125 29.835938 -35.628906 31.734375 -34.734375 C 33.640625 -33.835938 35.117188 -32.429688 36.171875 -30.515625 C 37.234375 -28.609375 37.765625 -26.132812 37.765625 -23.09375 L 37.765625 0 L 28.09375 0 L 28.09375 -20.6875 C 28.09375 -23.21875 27.628906 -25.125 26.703125 -26.40625 C 25.773438 -27.695312 24.335938 -28.34375 22.390625 -28.34375 C 20.453125 -28.34375 18.921875 -27.894531 17.796875 -27 C 16.679688 -26.101562 15.890625 -24.785156 15.421875 -23.046875 C 14.960938 -21.304688 14.734375 -19.175781 14.734375 -16.65625 L 14.734375 0 L 5.0625 0 L 5.0625 -49.296875 Z"/>
        </g>
      </g>
    </g>
  </g>
</svg>
