<svg xmlns="http://www.w3.org/2000/svg" viewBox="58 58 258 258" width="500" height="500">
  <defs>
    <clipPath id="clip-dark">
      <path d="M 141 144 L 316.519531 144 L 316.519531 316.515625 L 141 316.515625 Z"/>
    </clipPath>
    <clipPath id="clip-light">
      <path d="M 58.519531 58.515625 L 234 58.515625 L 234 234 L 58.519531 234 Z"/>
    </clipPath>
  </defs>
  <!-- Dark green section (bottom-right) -->
  <g clip-path="url(#clip-dark)">
    <path fill="#245501" d="M 316.472656 145.882812 L 316.472656 233.402344 L 233.402344 233.402344 L 233.402344 316.472656 L 141.589844 316.472656 L 141.589844 271.085938 C 147.496094 239.714844 162.816406 211.660156 184.503906 189.972656 C 212.683594 161.792969 251.617188 144.359375 294.609375 144.359375 C 301.933594 144.355469 309.21875 144.863281 316.472656 145.882812 Z" fill-opacity="1" fill-rule="evenodd"/>
  </g>
  <!-- Light green section (top-left) -->
  <g clip-path="url(#clip-light)">
    <path fill="#73a942" d="M 141.589844 58.519531 L 233.402344 58.519531 L 233.402344 136.753906 C 227.820312 138.855469 222.363281 141.234375 217.023438 143.894531 C 211.6875 146.550781 206.5 149.472656 201.460938 152.664062 C 196.421875 155.851562 191.558594 159.289062 186.871094 162.976562 C 182.183594 166.660156 177.695312 170.578125 173.410156 174.722656 C 169.125 178.867188 165.058594 183.21875 161.21875 187.78125 C 157.375 192.339844 153.777344 197.085938 150.417969 202.011719 C 147.0625 206.941406 143.964844 212.027344 141.128906 217.273438 C 138.292969 222.519531 135.730469 227.894531 133.445312 233.402344 L 58.519531 233.402344 L 58.519531 141.585938 L 141.589844 141.585938 Z" fill-opacity="1" fill-rule="evenodd"/>
  </g>
</svg>
