<?xml version="1.0" encoding="UTF-8"?>
<svg version="1.1" xmlns="http://www.w3.org/2000/svg" width="499" height="145" style="background:transparent">
<path d="M0 0 C5.99554288 3.54777579 9.63320855 9.11581213 12.36328125 15.3984375 C12.70385742 18.64990234 12.70385742 18.64990234 12.65625 22.109375 C12.64658203 23.35332031 12.63691406 24.59726562 12.62695312 25.87890625 C12.60181641 27.16410156 12.57667969 28.44929688 12.55078125 29.7734375 C12.53047852 31.73603516 12.53047852 31.73603516 12.50976562 33.73828125 C12.47450495 36.95875594 12.42521758 40.17838356 12.36328125 43.3984375 C11.75226563 42.62886719 11.14125 41.85929687 10.51171875 41.06640625 C5.55149333 34.90670814 2.04149022 32.0281964 -5.88671875 30.9609375 C-15.62109837 32.09661512 -22.56825953 38.05959149 -28.63671875 45.3984375 C-33.59035811 52.14327172 -37.94363086 59.26154473 -42.32421875 66.38671875 C-43.2994751 67.96634399 -43.2994751 67.96634399 -44.29443359 69.57788086 C-45.5748213 71.65767667 -46.84646683 73.74288827 -48.10791016 75.83422852 C-56.30750994 89.19739576 -56.30750994 89.19739576 -61.63671875 93.3984375 C-64.22119141 93.77099609 -64.22119141 93.77099609 -66.63671875 93.3984375 C-78.92951256 82.64224291 -80.13146439 59.65938421 -81.26464844 44.44482422 C-81.42961413 41.76380176 -81.55189382 39.08314642 -81.63671875 36.3984375 C-80.54037109 36.87796875 -80.54037109 36.87796875 -79.421875 37.3671875 C-72.87372986 39.79174615 -67.07046753 38.95967549 -60.76171875 36.1484375 C-51.26663484 30.99151934 -44.42710439 22.56356298 -37.47265625 14.47265625 C-26.64208273 2.23641255 -16.93242618 -7.42604072 0 0 Z " fill="#2B296F" transform="translate(123.63671875,23.6015625)"/>
<path d="M0 0 C4.98576657 2.49288329 8.58281661 6.47813322 11.0625 11.4375 C11.72982504 19.1609668 11.85177411 26.05180119 7.0625 32.4375 C2.48345426 37.42057918 -4.19842288 39.19840255 -10.80859375 39.62109375 C-13.18568134 39.62446551 -15.56259006 39.53928185 -17.9375 39.4375 C-17.9375 45.0475 -17.9375 50.6575 -17.9375 56.4375 C-20.185625 56.540625 -22.43375 56.64375 -24.75 56.75 C-26.64685547 56.83701172 -26.64685547 56.83701172 -28.58203125 56.92578125 C-31.9375 56.4375 -31.9375 56.4375 -33.61791992 54.58496094 C-35.5636721 49.94395501 -35.40525719 45.57612054 -35.40625 40.58984375 C-35.41386353 39.54099503 -35.42147705 38.4921463 -35.42932129 37.41151428 C-35.44010869 35.19843931 -35.44298094 32.98531348 -35.43847656 30.7722168 C-35.43750233 27.38309336 -35.47918127 23.99621969 -35.5234375 20.60742188 C-35.52864316 18.45573389 -35.53133272 16.30403803 -35.53125 14.15234375 C-35.5558429 12.63192726 -35.5558429 12.63192726 -35.58093262 11.08079529 C-35.51191288 4.07488104 -35.51191288 4.07488104 -32.58789062 0.83032227 C-23.93076464 -3.7191346 -9.09735314 -3.27504713 0 0 Z " fill="#2F2C72" transform="translate(333.9375,54.5625)"/>
<path d="M0 0 C6.45331949 3.90021695 10.01119001 7.92166417 11.96484375 15.1875 C13.00584794 23.06938887 12.13959037 30.32724385 7.96484375 37.1875 C3.48739957 42.30154762 -1.13321973 44.93917508 -7.9609375 45.5234375 C-23.78260129 45.85354138 -23.78260129 45.85354138 -29.03515625 41.1875 C-35.77174883 34.04032503 -37.5315653 27.09006181 -37.34375 17.37890625 C-36.73654968 11.09937889 -34.3069781 7.10827018 -29.72265625 2.875 C-20.81010364 -4.02564728 -10.09331312 -5.25655367 0 0 Z " fill="#2D2A70" transform="translate(179.03515625,66.8125)"/>
<path d="M0 0 C3.27480007 2.2482623 5.98295451 4.64169028 7.76953125 8.21484375 C8.02713282 12.46082824 8.04051679 16.71057677 8.06469727 20.96337891 C8.08191192 23.07520447 8.12580064 25.18546434 8.16992188 27.296875 C8.1800492 28.64191559 8.18856518 29.98696946 8.1953125 31.33203125 C8.20989502 32.55519043 8.22447754 33.77834961 8.23950195 35.03857422 C7.67869781 38.82873622 6.75710942 39.90421232 3.76953125 42.21484375 C-1.90648452 45.33984119 -6.75813852 45.70523807 -13.16796875 45.65234375 C-14.4509082 45.68231445 -14.4509082 45.68231445 -15.75976562 45.71289062 C-21.73945237 45.70832946 -26.22873206 44.56217169 -31.23046875 41.21484375 C-35.0150537 37.18609203 -35.6970801 32.93905375 -35.64453125 27.5703125 C-34.92181846 23.45903122 -32.45739861 20.74178882 -29.23046875 18.21484375 C-24.78818017 15.8407946 -20.34417301 15.78804811 -15.41796875 15.58984375 C-14.23557617 15.53183594 -14.23557617 15.53183594 -13.02929688 15.47265625 C-11.09671495 15.37895531 -9.16362499 15.29583596 -7.23046875 15.21484375 C-8.53942595 12.09286897 -8.53942595 12.09286897 -11.23046875 10.21484375 C-17.95645249 9.82393187 -24.56524834 10.34071648 -31.23046875 11.21484375 C-32.75538873 8.16500379 -32.46609423 5.57250685 -32.23046875 2.21484375 C-26.84721235 -6.45818045 -7.54961202 -4.0562925 0 0 Z " fill="#2D2A70" transform="translate(247.23046875,66.78515625)"/>
<path d="M0 0 C4.36970173 3.71889509 7.12555027 8.06415081 8.9375 13.5 C9.96744979 28.0183307 7.48366609 43.38789607 -0.546875 55.79296875 C-2.0625 57.5 -2.0625 57.5 -4.8125 58.1875 C-9.69379866 57.15491759 -11.9828667 54.32117346 -15.0625 50.5 C-17.69572611 46.26506607 -19.97816883 41.87463155 -22.25 37.4375 C-23.44919158 35.13274356 -24.65093479 32.82931261 -25.85546875 30.52734375 C-26.63700317 29.00741821 -26.63700317 29.00741821 -27.43432617 27.45678711 C-29.15593942 24.33031267 -31.04465368 21.44149487 -33.0625 18.5 C-25.98497851 8.91545455 -13.51829846 -6.62120741 0 0 Z " fill="#2C296F" transform="translate(125.0625,59.5)"/>
<path d="M0 0 C0.86109375 -0.04898438 1.7221875 -0.09796875 2.609375 -0.1484375 C5.47624155 0.4198467 7.29563578 1.22405815 9.27685547 3.41796875 C11.61793483 8.12596979 10.95088457 13.92550104 10.9375 19.0625 C10.95402556 21.52480841 10.97835645 23.9870809 11.01171875 26.44921875 C11.01131592 27.53807373 11.01091309 28.62692871 11.01049805 29.7487793 C10.9820253 32.53366893 10.9820253 32.53366893 13.25 34.375 C16.22 34.375 19.19 34.375 22.25 34.375 C22.25 23.485 22.25 12.595 22.25 1.375 C24.54877109 0.22561445 26.00462681 0.17658736 28.5625 0.125 C29.32175781 0.09921875 30.08101563 0.0734375 30.86328125 0.046875 C34.1199378 0.49459865 35.70855765 1.25384316 38.25 3.375 C38.75541004 6.31693611 38.92884675 8.67813238 38.87890625 11.62109375 C38.88131821 12.42861588 38.88373016 13.236138 38.88621521 14.06813049 C38.88523609 15.77536937 38.87182678 17.48263974 38.84692383 19.18969727 C38.81266286 21.80009177 38.82624578 24.40709233 38.84570312 27.01757812 C38.83880319 28.67709772 38.82912946 30.33660858 38.81640625 31.99609375 C38.82136612 32.77536728 38.82632599 33.55464081 38.83143616 34.35752869 C38.75521231 37.87495031 38.57113504 39.95319861 36.41040039 42.79125977 C30.29114044 47.27714962 24.77253581 47.93049539 17.375 47.875 C16.48748047 47.86855469 15.59996094 47.86210938 14.68554688 47.85546875 C9.16765761 47.70072352 4.7064673 47.17894615 -0.09375 44.25 C-6.63837343 36.84099234 -6.28702146 29.06526894 -6.10668945 19.72729492 C-6.0621408 17.41888702 -6.04517335 15.11152139 -6.03320312 12.80273438 C-6.01979644 11.33852648 -6.00487831 9.87433146 -5.98828125 8.41015625 C-5.98089432 7.71857925 -5.97350739 7.02700226 -5.96589661 6.31446838 C-5.85316624 0.73920227 -5.5448765 0.21326448 0 0 Z " fill="#302D72" transform="translate(384.75,64.625)"/>
<path d="M0 0 C1.38550197 2.77100394 1.1877467 4.9334706 1 8 C0.34 8.99 -0.32 9.98 -1 11 C-1.54527344 10.855625 -2.09054687 10.71125 -2.65234375 10.5625 C-8.24959924 9.18471403 -13.23945745 8.81712563 -19 9 C-19.33 10.32 -19.66 11.64 -20 13 C-19.07380859 13.14695312 -19.07380859 13.14695312 -18.12890625 13.296875 C-10.83586239 14.58453571 -4.28351586 16.35717016 1.5625 21.0625 C3.82375954 25.68333471 3.94985316 29.97009578 3 35 C0.917907 39.01444643 -1.48871415 41.33007179 -5.6171875 43.16015625 C-9.96547725 44.23969701 -14.03613243 44.36805775 -18.5 44.375 C-19.74330078 44.41173828 -19.74330078 44.41173828 -21.01171875 44.44921875 C-26.52319915 44.47550562 -29.61657635 43.63932395 -34 40 C-34.66 39.34 -35.32 38.68 -36 38 C-35.875 34.5 -35.875 34.5 -35 31 C-33.1875 29.4375 -33.1875 29.4375 -31 29 C-30.16662109 29.47759766 -30.16662109 29.47759766 -29.31640625 29.96484375 C-26.0701289 31.41554105 -23.28561129 31.19047428 -19.75 31.125 C-17.85507812 31.09792969 -17.85507812 31.09792969 -15.921875 31.0703125 C-14.95765625 31.04710937 -13.9934375 31.02390625 -13 31 C-13 30.01 -13 29.02 -13 28 C-14.16015625 27.76216797 -14.16015625 27.76216797 -15.34375 27.51953125 C-23.11998286 25.7775781 -29.59528921 23.83029963 -35 17.75 C-36.46712672 13.71540152 -36.8831229 10.22740798 -36 6 C-33.66340357 1.69138247 -29.99182834 -1.89131131 -25.3125 -3.5625 C-16.34640996 -5.25878731 -7.65546798 -5.20571823 0 0 Z " fill="#2E2B71" transform="translate(468,68)"/>
<path d="M0 0 C4.33637465 2.11182197 8.20576578 4.76815377 11.4375 8.375 C11.9325 9.86 11.9325 9.86 12.4375 11.375 C10.70182404 13.77777924 8.96718867 15.92481684 7 18.125 C6.44521973 18.75390137 5.89043945 19.38280273 5.31884766 20.03076172 C-2.40048432 28.6732765 -9.37547091 35.28339612 -21.3125 36.875 C-25.40721906 36.24504322 -27.40811767 35.05644193 -30.5625 32.375 C-32.34758245 24.59387136 -31.16082443 16.33740482 -27.1171875 9.4609375 C-20.38770431 0.43193241 -10.90759264 -4.4335283 0 0 Z " fill="#2D2A70" transform="translate(72.5625,22.625)"/>
<path d="M0 0 C0.75925781 -0.04898438 1.51851563 -0.09796875 2.30078125 -0.1484375 C5.04240776 0.45283574 6.68730384 1.4486153 8.62501526 3.48162842 C11.09399367 7.8814032 10.2791695 13.44034459 10.17578125 18.33203125 C10.16870651 19.59013107 10.16163177 20.8482309 10.15434265 22.14445496 C10.1311237 25.47749327 10.08626548 28.80879975 10.03082275 32.14135742 C9.97952734 35.54656055 9.95680691 38.95194314 9.93164062 42.35742188 C9.8765377 49.03042446 9.79288292 55.7026123 9.6875 62.375 C6.96857436 63.28130855 5.07406013 63.59701578 2.25 63.6875 C1.48816406 63.72488281 0.72632813 63.76226562 -0.05859375 63.80078125 C-3.24013563 63.19976207 -4.29508911 61.87019641 -6.3125 59.375 C-6.79351807 56.69207764 -6.79351807 56.69207764 -6.76660156 53.59667969 C-6.76614838 51.85532745 -6.76614838 51.85532745 -6.76568604 50.07879639 C-6.74504089 48.83076233 -6.72439575 47.58272827 -6.703125 46.296875 C-6.69746521 45.01516418 -6.69180542 43.73345337 -6.68597412 42.41290283 C-6.67073468 39.01286372 -6.63146916 35.61351306 -6.5871582 32.21374512 C-6.54616799 28.74154981 -6.52795521 25.26924276 -6.5078125 21.796875 C-6.464972 14.98930134 -6.39674212 8.18218376 -6.3125 1.375 C-4.04001762 0.23875881 -2.52947236 0.11053157 0 0 Z " fill="#302D72" transform="translate(359.3125,48.625)"/>
<path d="M0 0 C0.75925781 -0.04898438 1.51851562 -0.09796875 2.30078125 -0.1484375 C5.04240776 0.45283574 6.68730384 1.4486153 8.62501526 3.48162842 C11.09399367 7.8814032 10.2791695 13.44034459 10.17578125 18.33203125 C10.16870651 19.59013107 10.16163177 20.8482309 10.15434265 22.14445496 C10.1311237 25.47749327 10.08626548 28.80879975 10.03082275 32.14135742 C9.97952734 35.54656055 9.95680691 38.95194314 9.93164062 42.35742188 C9.8765377 49.03042446 9.79288292 55.7026123 9.6875 62.375 C6.96857436 63.28130855 5.07406013 63.59701578 2.25 63.6875 C1.48816406 63.72488281 0.72632813 63.76226562 -0.05859375 63.80078125 C-3.24013563 63.19976207 -4.29508911 61.87019641 -6.3125 59.375 C-6.79351807 56.69207764 -6.79351807 56.69207764 -6.76660156 53.59667969 C-6.76614838 51.85532745 -6.76614838 51.85532745 -6.76568604 50.07879639 C-6.74504089 48.83076233 -6.72439575 47.58272827 -6.703125 46.296875 C-6.69746521 45.01516418 -6.69180542 43.73345337 -6.68597412 42.41290283 C-6.67073468 39.01286372 -6.63146916 35.61351306 -6.5871582 32.21374512 C-6.54616799 28.74154981 -6.52795521 25.26924276 -6.5078125 21.796875 C-6.464972 14.98930134 -6.39674212 8.18218376 -6.3125 1.375 C-4.04001762 0.23875881 -2.52947236 0.11053157 0 0 Z " fill="#302D72" transform="translate(200.3125,48.625)"/>
<path d="M0 0 C1.62651522 3.25303044 1.11453156 6.39225602 1 10 C-2.56682243 13.56682243 -8.9685703 11.64061216 -14 12 C-14 22.89 -14 33.78 -14 45 C-16.74429996 45.91476665 -18.59033094 46.19238444 -21.4375 46.25 C-22.19933594 46.27578125 -22.96117187 46.3015625 -23.74609375 46.328125 C-26.77629674 45.88698626 -27.8736243 45.23393982 -30 43 C-30.43022929 40.13524656 -30.60828376 37.65837188 -30.6015625 34.7890625 C-30.61013275 33.98391205 -30.618703 33.1787616 -30.62753296 32.34921265 C-30.63901503 30.64625812 -30.64002317 28.94320551 -30.63134766 27.24023438 C-30.62503692 24.64021301 -30.67188947 22.04476874 -30.72265625 19.4453125 C-30.72720367 17.78906823 -30.72860855 16.13281175 -30.7265625 14.4765625 C-30.74498199 13.70245026 -30.76340149 12.92833801 -30.78237915 12.13076782 C-30.73192205 9.17117533 -30.61526846 6.75138109 -28.69287109 4.40370178 C-21.29061946 -1.89494425 -8.88677572 -5.16006332 0 0 Z " fill="#312E72" transform="translate(290,66)"/>
<path d="M0 0 C2.90717073 2.21863029 3.83981643 3.51944929 5 7 C5.36928024 12.63152372 5.14319824 16.11058051 2 21 C-1.49565336 23.33043558 -2.8865729 23.58763244 -7 23 C-10.77607612 19.22392388 -12.14206474 15.89583854 -12.25 10.625 C-12.21096045 6.6299526 -11.58218201 4.17807016 -9 1 C-5.90826248 -0.54586876 -3.40570448 -0.29359521 0 0 Z " fill="#F7F7F9" transform="translate(170,77)"/>
<path d="M0 0 C7.11008111 -0.4820394 7.11008111 -0.4820394 11 1.625 C13 4 13 4 13.5625 7 C13 10 13 10 11.5625 12.375 C7.67632781 14.83940188 4.54866791 14.2675687 0 14 C0 9.38 0 4.76 0 0 Z " fill="#FAF9FB" transform="translate(316,66)"/>
<path d="M0 0 C0 2.64 0 5.28 0 8 C-3.1818216 9.5909108 -6.53636204 9.39584434 -10 9 C-12.0625 7.75 -12.0625 7.75 -13 6 C-12.55859375 3.890625 -12.55859375 3.890625 -12 2 C-10.56342755 1.66269158 -9.12569907 1.33030409 -7.6875 1 C-6.88699219 0.814375 -6.08648437 0.62875 -5.26171875 0.4375 C-3 0 -3 0 0 0 Z " fill="#F2F2F6" transform="translate(240,92)"/>
</svg>
