<svg width="200" height="200" viewBox="0 0 200 200" xmlns="http://www.w3.org/2000/svg">
  <!-- Cross symbol with two-tone green and white curve -->
  <defs>
    <clipPath id="lightGreenClip">
      <path d="M0 0 L200 0 L200 200 Q 140 140 100 100 Q 60 60 0 0 Z"/>
    </clipPath>
    <clipPath id="darkGreenClip">
      <path d="M200 200 L0 200 L0 0 Q 60 60 100 100 Q 140 140 200 200 Z"/>
    </clipPath>
  </defs>
  
  <!-- Light green section (top-left) -->
  <path d="M100 20 L100 80 L20 80 L20 120 L100 120 L100 180 L120 180 L120 120 L180 120 L180 80 L120 80 L120 20 Z" 
        fill="#73a942" 
        clip-path="url(#lightGreenClip)"/>
  
  <!-- Dark green section (bottom-right) -->
  <path d="M100 20 L100 80 L20 80 L20 120 L100 120 L100 180 L120 180 L120 120 L180 120 L180 80 L120 80 L120 20 Z" 
        fill="#143601" 
        clip-path="url(#darkGreenClip)"/>
  
  <!-- White curve separator -->
  <path d="M 100 20 Q 140 60 180 120" 
        stroke="#ffffff" 
        stroke-width="8" 
        fill="none" 
        stroke-linecap="round"/>
</svg>
