<svg xmlns="http://www.w3.org/2000/svg" viewBox="0 0 210 297" preserveAspectRatio="xMidYMid meet">
  <rect width="210" height="297" fill="#ffffff"/>
  <g transform="translate(18,18)">
    <rect width="14" height="14" rx="1.6" fill="#0F766E"/>
    <text x="7" y="10" text-anchor="middle" font-family="Helvetica" font-weight="bold" font-size="6" fill="#ffffff">DC</text>
    <rect x="18" y="2" width="50" height="3" fill="#111827"/>
    <rect x="18" y="7" width="60" height="1.6" fill="#6B7280"/>
    <rect x="18" y="11" width="50" height="1.6" fill="#6B7280"/>
    <rect x="135" y="0" width="36" height="2" fill="#9CA3AF"/>
    <text x="173" y="9" text-anchor="end" font-family="Helvetica" font-weight="bold" font-size="8" fill="#0F766E">INV-101</text>
    <rect x="146" y="11" width="25" height="1.5" fill="#9CA3AF"/>
  </g>
  <line x1="18" y1="42" x2="192" y2="42" stroke="#E5E7EB" stroke-width="0.5"/>
  <g transform="translate(18,50)">
    <rect width="20" height="1.5" fill="#9CA3AF"/>
    <rect y="4" width="40" height="2.4" fill="#111827"/>
    <rect y="9" width="30" height="1.6" fill="#6B7280"/>
    <rect y="13" width="50" height="1.6" fill="#6B7280"/>
    <rect x="130" width="20" height="1.5" fill="#9CA3AF"/>
    <rect x="130" y="4" width="35" height="2" fill="#111827"/>
  </g>
  <line x1="18" y1="74" x2="192" y2="74" stroke="#E5E7EB" stroke-width="0.8"/>
  <g transform="translate(18,80)">
    <rect width="20" height="1.5" fill="#9CA3AF"/>
    <rect x="80" width="20" height="1.5" fill="#9CA3AF"/>
    <rect x="125" width="20" height="1.5" fill="#9CA3AF"/>
    <rect x="160" width="20" height="1.5" fill="#9CA3AF"/>
  </g>
  <line x1="18" y1="86" x2="192" y2="86" stroke="#E5E7EB" stroke-width="0.4"/>
  <g transform="translate(18,92)">
    <rect width="60" height="2" fill="#111827"/>
    <rect x="160" width="20" height="2" fill="#111827"/>
  </g>
  <line x1="18" y1="98" x2="192" y2="98" stroke="#E5E7EB" stroke-width="0.4"/>
  <g transform="translate(18,104)">
    <rect width="55" height="2" fill="#111827"/>
    <rect x="160" width="20" height="2" fill="#111827"/>
  </g>
  <line x1="18" y1="110" x2="192" y2="110" stroke="#E5E7EB" stroke-width="0.4"/>
  <g transform="translate(18,116)">
    <rect width="50" height="2" fill="#111827"/>
    <rect x="160" width="20" height="2" fill="#111827"/>
  </g>
  <line x1="18" y1="122" x2="192" y2="122" stroke="#E5E7EB" stroke-width="0.4"/>
  <g transform="translate(120,140)">
    <rect width="30" height="1.6" fill="#6B7280"/>
    <rect x="50" width="22" height="1.6" fill="#111827"/>
    <rect y="6" width="30" height="1.6" fill="#6B7280"/>
    <rect x="50" y="6" width="22" height="1.6" fill="#111827"/>
    <line y1="14" x1="0" x2="72" y2="14" stroke="#E5E7EB" stroke-width="0.5"/>
    <text x="0" y="20" font-family="Helvetica" font-weight="bold" font-size="3.6" fill="#111827">Total Due</text>
    <text x="72" y="20" text-anchor="end" font-family="Helvetica" font-weight="bold" font-size="3.6" fill="#0F766E">₹6,490</text>
  </g>
  <line x1="18" y1="240" x2="192" y2="240" stroke="#E5E7EB" stroke-width="0.4"/>
  <g transform="translate(18,246)">
    <rect width="100" height="1.4" fill="#9CA3AF"/>
    <rect y="3" width="80" height="1.4" fill="#9CA3AF"/>
    <rect x="155" y="10" width="25" height="1.4" fill="#111827"/>
  </g>
</svg>
