<svg xmlns="http://www.w3.org/2000/svg" viewBox="0 0 210 297" preserveAspectRatio="xMidYMid meet">
  <rect width="210" height="297" fill="#ffffff"/>
  <rect width="210" height="6" fill="#1a2a6c"/>
  <g transform="translate(20,20)">
    <rect width="18" height="18" fill="#f0f4f8" stroke="#1a2a6c" stroke-width="0.6" stroke-dasharray="2,1"/>
    <rect x="22" y="2" width="50" height="3" fill="#1a2a6c"/>
    <rect x="22" y="8" width="42" height="2" fill="#1a2a6c" opacity="0.7"/>
    <rect x="120" y="2" width="50" height="2" fill="#6B7280"/>
    <rect x="120" y="6" width="50" height="1.6" fill="#9CA3AF"/>
    <rect x="120" y="9.6" width="50" height="1.6" fill="#9CA3AF"/>
    <rect x="120" y="13.2" width="50" height="1.6" fill="#9CA3AF"/>
  </g>
  <line x1="20" y1="48" x2="190" y2="48" stroke="#dddddd" stroke-width="0.5"/>
  <text x="105" y="60" text-anchor="middle" font-family="Helvetica" font-weight="bold" font-size="6" fill="#333333">TAX INVOICE</text>
  <line x1="80" y1="62" x2="130" y2="62" stroke="#333333" stroke-width="0.4"/>
  <g transform="translate(20,72)">
    <rect width="80" height="2" fill="#9CA3AF"/>
    <rect y="4" width="68" height="2" fill="#9CA3AF"/>
    <rect y="8" width="74" height="2" fill="#9CA3AF"/>
    <rect x="90" width="80" height="2" fill="#9CA3AF"/>
    <rect x="90" y="4" width="64" height="2" fill="#9CA3AF"/>
  </g>
  <g transform="translate(20,92)">
    <rect width="170" height="6" fill="#f8fafc" stroke="#dddddd" stroke-width="0.3"/>
    <rect y="6" width="170" height="6" fill="#ffffff" stroke="#dddddd" stroke-width="0.3"/>
    <rect y="12" width="170" height="6" fill="#ffffff" stroke="#dddddd" stroke-width="0.3"/>
    <rect y="18" width="170" height="6" fill="#ffffff" stroke="#dddddd" stroke-width="0.3"/>
    <rect y="24" width="170" height="6" fill="#ffffff" stroke="#dddddd" stroke-width="0.3"/>
  </g>
  <g transform="translate(110,128)">
    <rect width="80" height="3" fill="#dddddd"/>
    <rect y="5" width="80" height="3" fill="#dddddd"/>
    <rect y="10" width="80" height="3" fill="#dddddd"/>
    <rect y="15" width="80" height="5" fill="#f0f4f8" stroke="#1a2a6c" stroke-width="0.5"/>
  </g>
  <rect x="20" y="156" width="170" height="14" fill="#f8fafc" stroke="#1a2a6c" stroke-width="0" />
  <line x1="20" y1="156" x2="20" y2="170" stroke="#1a2a6c" stroke-width="1.2"/>
  <rect x="24" y="160" width="60" height="2" fill="#444"/>
  <rect x="24" y="164" width="100" height="2" fill="#666"/>
  <g transform="translate(20,180)">
    <rect width="100" height="2" fill="#9CA3AF"/>
    <rect y="4" width="80" height="2" fill="#9CA3AF"/>
    <rect y="8" width="90" height="2" fill="#9CA3AF"/>
    <rect x="135" y="4" width="35" height="2" fill="#1a2a6c"/>
  </g>
  <rect y="291" width="210" height="6" fill="#1a2a6c"/>
</svg>
