<svg xmlns="http://www.w3.org/2000/svg" viewBox="0 0 210 297" preserveAspectRatio="xMidYMid meet">
  <rect width="210" height="297" fill="#ffffff"/>
  <rect width="210" height="6" fill="#2a276e"/>
  <g transform="translate(20,20)">
    <rect width="18" height="18" fill="#f0f4f8" stroke="#2a276e" stroke-width="0.6" stroke-dasharray="2,1"/>
    <rect x="22" y="2" width="60" height="3" fill="#2a276e"/>
    <rect x="22" y="8" width="50" height="2" fill="#2a276e" opacity="0.7"/>
    <rect x="120" y="2" width="50" height="2" fill="#6B7280"/>
    <rect x="120" y="6" width="50" height="1.6" fill="#9CA3AF"/>
    <rect x="120" y="9.6" width="50" height="1.6" fill="#9CA3AF"/>
    <rect x="120" y="13.2" width="50" height="1.6" fill="#9CA3AF"/>
  </g>
  <line x1="20" y1="48" x2="190" y2="48" stroke="#dddddd" stroke-width="0.5"/>
  <text x="105" y="60" text-anchor="middle" font-family="Helvetica" font-weight="bold" font-size="6" fill="#2a276e">PRESCRIPTION</text>
  <line x1="70" y1="62" x2="140" y2="62" stroke="#2a276e" stroke-width="0.4"/>
  <g transform="translate(20,72)">
    <rect width="80" height="2" fill="#9CA3AF"/>
    <rect y="4" width="60" height="2" fill="#9CA3AF"/>
    <rect x="90" width="80" height="2" fill="#9CA3AF"/>
    <rect x="90" y="4" width="64" height="2" fill="#9CA3AF"/>
  </g>
  <text x="20" y="100" font-family="serif" font-style="italic" font-size="14" fill="#2a276e">℞</text>
  <g transform="translate(20,108)">
    <rect width="170" height="6" fill="#f8fafc" stroke="#dddddd" stroke-width="0.3"/>
    <rect y="6" width="170" height="6" fill="#ffffff" stroke="#dddddd" stroke-width="0.3"/>
    <rect y="12" width="170" height="6" fill="#ffffff" stroke="#dddddd" stroke-width="0.3"/>
    <rect y="18" width="170" height="6" fill="#ffffff" stroke="#dddddd" stroke-width="0.3"/>
  </g>
  <g transform="translate(20,150)">
    <rect width="30" height="2" fill="#2a276e"/>
    <rect y="4" width="100" height="1.6" fill="#9CA3AF"/>
    <rect y="8" width="80" height="1.6" fill="#9CA3AF"/>
    <rect y="12" width="60" height="1.6" fill="#9CA3AF"/>
  </g>
  <g transform="translate(140,235)">
    <line x1="0" y1="0" x2="50" y2="0" stroke="#333" stroke-width="0.5"/>
    <text x="25" y="6" text-anchor="middle" font-family="Helvetica" font-weight="bold" font-size="3.5" fill="#2a276e">Doctor Signature</text>
  </g>
  <rect y="291" width="210" height="6" fill="#2a276e"/>
</svg>
